<svg width="610" height="418" viewBox="0 0 610 418" fill="none" xmlns="http://www.w3.org/2000/svg">
<path d="M92.8012 155.8C100.968 153 110.768 150.317 122.201 147.75C133.635 144.95 148.101 143.55 165.601 143.55C175.168 143.55 184.618 144.367 193.951 146C203.285 147.4 211.918 150.433 219.851 155.1C225.918 152.067 233.035 149.383 241.201 147.05C249.368 144.717 258.585 143.55 268.851 143.55C277.951 143.55 287.285 144.483 296.851 146.35C306.651 147.983 315.401 151.6 323.101 157.2C331.035 162.8 337.451 170.85 342.351 181.35C347.485 191.85 350.051 205.733 350.051 223V327.65C343.985 328.817 338.501 329.517 333.601 329.75C328.701 330.217 324.385 330.45 320.651 330.45C316.685 330.45 312.251 330.217 307.351 329.75C302.451 329.517 296.968 328.817 290.901 327.65V229.3C290.901 216.933 288.801 208.067 284.601 202.7C280.401 197.333 273.518 194.65 263.951 194.65C260.685 194.65 257.418 195 254.151 195.7C251.118 196.4 249.018 196.983 247.851 197.45C249.951 205.617 251.001 214.95 251.001 225.45V327.65C244.935 328.817 239.451 329.517 234.551 329.75C229.651 330.217 225.335 330.45 221.601 330.45C217.635 330.45 213.201 330.217 208.301 329.75C203.401 329.517 197.918 328.817 191.851 327.65V229.3C191.851 216.933 189.868 208.067 185.901 202.7C181.935 197.333 175.168 194.65 165.601 194.65C163.035 194.65 160.235 194.883 157.201 195.35C154.401 195.817 152.651 196.283 151.951 196.75V327.65C145.885 328.817 140.401 329.517 135.501 329.75C130.601 330.217 126.285 330.45 122.551 330.45C118.585 330.45 114.151 330.217 109.251 329.75C104.351 329.517 98.8678 328.817 92.8012 327.65V155.8ZM434.68 240.5C435.847 240.733 437.247 240.967 438.88 241.2C440.747 241.2 442.263 241.2 443.43 241.2C451.597 241.2 458.247 239.217 463.38 235.25C468.747 231.05 471.43 224.05 471.43 214.25C471.43 205.85 468.747 199.433 463.38 195C458.247 190.333 451.83 188 444.13 188C443.197 188 441.797 188 439.93 188C438.297 188 436.547 188.117 434.68 188.35V240.5ZM376.93 147.75C387.663 146.117 398.63 144.95 409.83 144.25C421.263 143.317 432.23 142.85 442.73 142.85C453.463 142.85 463.963 143.9 474.23 146C484.497 147.867 493.713 151.483 501.88 156.85C510.047 161.983 516.58 169.217 521.48 178.55C526.613 187.65 529.18 199.55 529.18 214.25C529.18 227.55 526.847 238.75 522.18 247.85C517.747 256.95 511.797 264.3 504.33 269.9C496.863 275.5 488.347 279.583 478.78 282.15C469.447 284.483 459.88 285.65 450.08 285.65C446.113 285.65 442.73 285.533 439.93 285.3C437.13 285.067 435.38 284.833 434.68 284.6V327.65C428.613 328.817 423.13 329.517 418.23 329.75C413.563 330.217 409.363 330.45 405.63 330.45C401.663 330.45 397.347 330.217 392.68 329.75C388.247 329.517 382.997 328.817 376.93 327.65V147.75Z" fill="white"/>
<rect x="15" y="54" width="580" height="349" stroke="white" stroke-width="30"/>
</svg>
